<svg width="70" height="55" viewBox="0 0 70 55" fill="none" xmlns="http://www.w3.org/2000/svg">
<path fill-rule="evenodd" clip-rule="evenodd" d="M14.3404 0C10.3993 0 7.48522 3.44919 7.61755 7.18605C7.74125 10.7819 7.58016 15.4336 6.40933 19.228C5.22988 23.031 3.24494 25.4417 0 25.7524V29.2476C3.24494 29.5554 5.23275 31.9661 6.40645 35.772C7.58016 39.5664 7.74125 44.2181 7.61468 47.8111C7.48522 51.5508 10.3993 55 14.3404 55H54.7066C58.6477 55 61.5618 51.5508 61.4295 47.8111C61.3058 44.2181 61.4669 39.5664 62.6377 35.772C63.8143 31.9661 65.7963 29.5583 69.0413 29.2476V25.7524C65.7963 25.4417 63.8143 23.031 62.6377 19.228C61.4669 15.4307 61.3058 10.7791 61.4295 7.18605C61.5618 3.44631 58.6448 0 54.7066 0H14.3404ZM46.8042 33.8561C46.8042 39.0054 42.9638 42.1267 36.5919 42.1267H25.7438C25.4332 42.1267 25.1354 42.0033 24.9159 41.7838C24.6963 41.5642 24.5729 41.2664 24.5729 40.9559V14.0413C24.5737 13.7312 24.6974 13.4342 24.9169 13.2152C25.1364 12.9963 25.4337 12.8733 25.7438 12.8733H36.5315C41.8448 12.8733 45.3342 15.75 45.3342 20.1716C45.3342 23.2727 42.9868 26.0487 39.9979 26.5377V26.6988C44.0685 27.1447 46.8071 29.9639 46.8071 33.8561H46.8042ZM35.4124 16.5814H29.2275V25.3209H34.4372C38.4646 25.3209 40.6854 23.6984 40.6854 20.7987C40.6854 18.0831 38.7753 16.5814 35.4124 16.5814ZM29.2275 28.7873V38.4157H35.6426C39.8339 38.4157 42.0576 36.7328 42.0576 33.5713C42.0576 30.4069 39.7735 28.7873 35.3721 28.7873H29.2275Z" fill="#8913FC"/>
</svg>
