<svg width="55" height="55" viewBox="0 0 55 55" fill="none" xmlns="http://www.w3.org/2000/svg">
<path d="M53.9524 25.0452L29.9387 1.04005C29.6099 0.710369 29.2192 0.448803 28.7891 0.270334C28.359 0.0918655 27.898 0 27.4323 0C26.9667 0 26.5056 0.0918655 26.0755 0.270334C25.6454 0.448803 25.2548 0.710369 24.926 1.04005L19.9493 6.0253L26.2767 12.3441C27.0199 12.0919 27.819 12.0531 28.5832 12.232C29.3474 12.4109 30.0462 12.8004 30.6003 13.3562C31.7826 14.5385 32.1125 16.2381 31.6125 17.7057L37.6993 23.801C38.445 23.5413 39.2489 23.4976 40.0184 23.6749C40.7879 23.8521 41.4917 24.2431 42.0487 24.8029C43.7053 26.4492 43.7053 29.1162 42.0487 30.7642C41.6581 31.1556 41.1942 31.4661 40.6834 31.6779C40.1727 31.8897 39.6252 31.9988 39.0723 31.9988C38.5194 31.9988 37.9719 31.8897 37.4612 31.6779C36.9505 31.4661 36.4865 31.1556 36.0959 30.7642C35.5094 30.1773 35.1083 29.4309 34.9427 28.6178C34.7771 27.8048 34.8543 26.961 35.1645 26.1914L29.4627 20.517V35.4728C29.8648 35.6704 30.2497 35.9385 30.5814 36.2701C32.2191 37.9267 32.2191 40.5835 30.5814 42.2315C29.7875 43.0222 28.7126 43.4661 27.5921 43.4661C26.4716 43.4661 25.3968 43.0222 24.6029 42.2315C24.1116 41.74 23.7495 41.1348 23.5486 40.4696C23.3478 39.8043 23.3145 39.0998 23.4518 38.4186C23.5891 37.7374 23.8926 37.1007 24.3354 36.5652C24.7781 36.0297 25.3464 35.6119 25.9897 35.3491V20.2507C25.4766 20.0328 25.0091 19.7203 24.6115 19.3296C24.0201 18.7398 23.6182 17.987 23.4572 17.1674C23.2962 16.3479 23.3834 15.499 23.7076 14.7293L17.4953 8.48269L1.02737 24.9421C0.369037 25.6102 0 26.5105 0 27.4484C0 28.3864 0.369037 29.2867 1.02737 29.9548L25.0411 53.96C25.3699 54.2896 25.7606 54.5512 26.1907 54.7297C26.6208 54.9081 27.0818 55 27.5475 55C28.0131 55 28.4742 54.9081 28.9043 54.7297C29.3343 54.5512 29.725 54.2896 30.0538 53.96L53.9507 30.0631C54.2804 29.7342 54.542 29.3436 54.7204 28.9135C54.8989 28.4834 54.9908 28.0224 54.9908 27.5567C54.9908 27.0911 54.8989 26.63 54.7204 26.1999C54.542 25.7698 54.2804 25.3792 53.9507 25.0503L53.9524 25.0452Z" fill="#F34F29"/>
</svg>
