<svg width="49" height="55" viewBox="0 0 49 55" fill="none" xmlns="http://www.w3.org/2000/svg">
<path d="M4.41179 49.502L0 0H48.4943L44.0766 49.4941L24.2177 55L4.41179 49.502Z" fill="#1572B6"/>
<path d="M24.2471 50.7924L40.2953 46.3433L44.0707 4.04834H24.2471V50.7924Z" fill="#33A9DC"/>
<path d="M24.2471 21.9824H32.2811L32.835 15.7654H24.2471V9.69379H39.4703L39.325 11.3222L37.8341 28.054H24.2471V21.9824Z" fill="white"/>
<path d="M24.2844 37.7497L24.2569 37.7576L17.4958 35.9308L17.0637 31.0888H10.9685L11.819 40.6215L24.2549 44.0747L24.2844 44.0668V37.7497Z" fill="#EBEBEB"/>
<path d="M31.7645 27.7966L31.0337 35.9268L24.2628 37.7536V44.0707L36.7086 40.6215L36.8009 39.5961L37.8557 27.7966H31.7645Z" fill="white"/>
<path d="M24.2688 9.69379V15.7654H9.6034L9.48162 14.4002L9.20465 11.3222L9.0593 9.69379H24.2688Z" fill="#EBEBEB"/>
<path d="M24.2472 21.9822V28.0538H17.5706L17.4488 26.6887L17.1738 23.6106L17.0284 21.9822H24.2472Z" fill="#EBEBEB"/>
</svg>
