<svg width="23" height="17" viewBox="0 0 23 17" fill="none" xmlns="http://www.w3.org/2000/svg">
<path d="M21.3571 0H1.64286C1.20714 0 0.789277 0.173086 0.481182 0.481182C0.173086 0.789277 0 1.20714 0 1.64286V14.7857C0 15.2214 0.173086 15.6393 0.481182 15.9474C0.789277 16.2555 1.20714 16.4286 1.64286 16.4286H21.3571C21.7929 16.4286 22.2107 16.2555 22.5188 15.9474C22.8269 15.6393 23 15.2214 23 14.7857V1.64286C23 1.20714 22.8269 0.789277 22.5188 0.481182C22.2107 0.173086 21.7929 0 21.3571 0ZM19.55 1.64286L11.5 7.21214L3.45 1.64286H19.55ZM1.64286 14.7857V2.39036L11.0318 8.88786C11.1693 8.98325 11.3326 9.03436 11.5 9.03436C11.6674 9.03436 11.8307 8.98325 11.9682 8.88786L21.3571 2.39036V14.7857H1.64286Z" fill="white"/>
</svg>
