<svg width="37" height="55" viewBox="0 0 37 55" fill="none" xmlns="http://www.w3.org/2000/svg">
<path d="M27.5 36.6666C32.5626 36.6666 36.6667 32.5626 36.6667 27.5C36.6667 22.4374 32.5626 18.3333 27.5 18.3333C22.4374 18.3333 18.3333 22.4374 18.3333 27.5C18.3333 32.5626 22.4374 36.6666 27.5 36.6666Z" fill="#19BCFE"/>
<path fill-rule="evenodd" clip-rule="evenodd" d="M9.16667 55C11.5978 55 13.9294 54.0342 15.6485 52.3152C17.3676 50.5961 18.3333 48.2645 18.3333 45.8334V36.6667H9.16667C6.73552 36.6667 4.40394 37.6325 2.68485 39.3515C0.965771 41.0706 0 43.4022 0 45.8334C0 48.2645 0.965771 50.5961 2.68485 52.3152C4.40394 54.0342 6.73552 55 9.16667 55Z" fill="#09CF83"/>
<path fill-rule="evenodd" clip-rule="evenodd" d="M9.16667 36.6666H18.3333V18.3333H9.16667C6.73552 18.3333 4.40394 19.2991 2.68485 21.0182C0.965771 22.7373 0 25.0688 0 27.5C0 29.9311 0.965771 32.2627 2.68485 33.9818C4.40394 35.7009 6.73552 36.6666 9.16667 36.6666Z" fill="#A259FF"/>
<path fill-rule="evenodd" clip-rule="evenodd" d="M9.16667 18.3333H18.3333V0H9.16667C6.73552 0 4.40394 0.965771 2.68485 2.68485C0.965771 4.40394 0 6.73552 0 9.16667C0 11.5978 0.965771 13.9294 2.68485 15.6485C4.40394 17.3676 6.73552 18.3333 9.16667 18.3333Z" fill="#F24E1E"/>
<path fill-rule="evenodd" clip-rule="evenodd" d="M27.5 18.3333H18.3333V0H27.5C29.9312 0 32.2627 0.965771 33.9818 2.68485C35.7009 4.40394 36.6667 6.73552 36.6667 9.16667C36.6667 11.5978 35.7009 13.9294 33.9818 15.6485C32.2627 17.3676 29.9312 18.3333 27.5 18.3333Z" fill="#FF7262"/>
</svg>
