<svg width="17" height="16" viewBox="0 0 17 16" fill="none" xmlns="http://www.w3.org/2000/svg">
<path fill-rule="evenodd" clip-rule="evenodd" d="M6.15354 15.5907C6.15354 15.3958 6.14667 14.8801 6.14274 14.1953C3.9175 14.6908 3.448 13.0955 3.448 13.0955C3.08408 12.1478 2.55957 11.8955 2.55957 11.8955C1.83321 11.3864 2.61458 11.397 2.61458 11.397C3.41755 11.4549 3.83991 12.2425 3.83991 12.2425C4.55349 13.4959 5.71203 13.1343 6.16828 12.9243C6.24096 12.3941 6.44772 12.0325 6.67609 11.8276C4.89973 11.6206 3.03202 10.9166 3.03202 7.77342C3.03202 6.87809 3.34388 6.14592 3.85562 5.57237C3.77361 5.3649 3.49858 4.53101 3.9342 3.40153C3.9342 3.40153 4.60604 3.18097 6.1339 4.24247C6.77186 4.06069 7.45647 3.96904 8.13715 3.96602C8.81636 3.96904 9.50048 4.06069 10.1399 4.24247C11.6668 3.18097 12.3376 3.40153 12.3376 3.40153C12.7742 4.53051 12.4997 5.3644 12.4172 5.57237C12.9299 6.14592 13.2393 6.87809 13.2393 7.77342C13.2393 10.9247 11.3687 11.6181 9.58643 11.821C9.87422 12.0743 10.1296 12.5748 10.1296 13.3403C10.1296 14.437 10.1193 15.3218 10.1193 15.5907C10.1193 15.8102 10.2637 16.065 10.6698 15.9849C13.8459 14.8983 16.1359 11.8255 16.1359 8.20295C16.1359 3.67245 12.5537 0 8.13568 0C3.71811 0 0.135925 3.67245 0.135925 8.20295C0.136416 11.8266 2.42844 14.9013 5.60742 15.9859C6.00719 16.061 6.15354 15.8077 6.15354 15.5907Z" fill="white"/>
</svg>
