<svg width="49" height="55" viewBox="0 0 49 55" fill="none" xmlns="http://www.w3.org/2000/svg">
<path d="M4.41375 49.502L0 0H48.4982L44.0786 49.4941L24.2196 55L4.41375 49.502Z" fill="#E44F26"/>
<path d="M24.2491 50.7924L40.2973 46.3433L44.0727 4.04834H24.2491V50.7924Z" fill="#F1662A"/>
<path d="M24.249 22.4066H16.2151L15.6612 16.1896H24.249V10.118H9.02582L9.17118 11.7484L10.6621 28.4782H24.249V22.4066Z" fill="#EBEBEB"/>
<path d="M24.249 38.1738L24.2215 38.1817L17.4605 36.3569L17.0283 31.5149H10.9331L11.7837 41.0456L24.2215 44.4988L24.249 44.491V38.1738Z" fill="#EBEBEB"/>
<path d="M24.2275 22.4066V28.4782H31.7036L31.0004 36.353L24.2275 38.1798V44.497L36.6752 41.0457L36.7656 40.0204L38.1916 24.037L38.3409 22.4066H24.2275Z" fill="white"/>
<path d="M24.2275 10.118V16.1896H38.8929L39.0147 14.8264L39.2916 11.7484L39.437 10.118H24.2275Z" fill="white"/>
</svg>
