<svg width="55" height="55" viewBox="0 0 55 55" fill="none" xmlns="http://www.w3.org/2000/svg">
<path d="M0 0H55V55H0V0Z" fill="#F7DF1E"/>
<path d="M14.4615 45.9619L18.6703 43.4147C19.4824 44.8544 20.2211 46.0725 21.9929 46.0725C23.6912 46.0725 24.7622 45.4082 24.7622 42.8241V25.2503H29.9307V42.8971C29.9307 48.2504 26.7927 50.6872 22.2144 50.6872C18.0797 50.6872 15.6797 48.5458 14.4613 45.9615" fill="black"/>
<path d="M32.7381 45.4081L36.9465 42.9716C38.0544 44.7808 39.4943 46.1098 42.0415 46.1098C44.1833 46.1098 45.5488 45.039 45.5488 43.5622C45.5488 41.7901 44.1459 41.1624 41.783 40.129L40.4912 39.5747C36.7621 37.9876 34.2886 35.9939 34.2886 31.7851C34.2886 27.9084 37.2421 24.9548 41.8571 24.9548C45.143 24.9548 47.5058 26.0995 49.2039 29.0899L45.1795 31.6744C44.2933 30.087 43.3338 29.4594 41.8569 29.4594C40.3431 29.4594 39.3832 30.4193 39.3832 31.6744C39.3832 33.225 40.3431 33.853 42.5582 34.8129L43.8502 35.3665C48.2438 37.2496 50.7173 39.1693 50.7173 43.4885C50.7173 48.1407 47.0624 50.6879 42.1521 50.6879C37.3527 50.6879 34.2515 48.399 32.7379 45.4083" fill="black"/>
</svg>
