<svg width="44" height="55" viewBox="0 0 44 55" fill="none" xmlns="http://www.w3.org/2000/svg">
<path d="M43.67 9.8725V45.0725C43.67 46.3008 43.3125 47.4008 42.5975 48.3725C41.8825 49.3258 40.92 49.9675 39.71 50.2975L23.9525 54.835C23.7325 54.89 23.485 54.945 23.21 55H22.605C22 55 21.45 54.9175 20.955 54.7525C20.46 54.5875 19.9558 54.3675 19.4425 54.0925L9.13 48.2625C8.745 48.0425 8.4425 47.7583 8.2225 47.41C8.0025 47.0617 7.8925 46.6675 7.8925 46.2275C7.8925 45.5675 8.13083 45.0083 8.6075 44.55C9.06583 44.0917 9.625 43.8625 10.285 43.8625H23.65V11.385L13.585 14.96C12.7967 15.2533 12.155 15.7667 11.66 16.5C11.165 17.1967 10.9175 17.9758 10.9175 18.8375V37.345C10.9175 38.115 10.725 38.8117 10.34 39.435C9.97333 40.0583 9.45083 40.5533 8.7725 40.92L4.0425 43.505C3.6025 43.7433 3.1625 43.8625 2.7225 43.8625C1.97083 43.8625 1.32917 43.5967 0.7975 43.065C0.265833 42.5333 0 41.8825 0 41.1125V15.0425C0 14.0892 0.2475 13.2 0.7425 12.375C1.25583 11.4583 1.925 10.7617 2.75 10.285L19.69 0.66C20.075 0.44 20.4875 0.275 20.9275 0.165C21.3675 0.0549998 21.8075 0 22.2475 0C22.5592 0 22.8433 0.0274999 23.1 0.0824999C23.3567 0.119167 23.6408 0.183333 23.9525 0.275L39.71 4.6475C40.315 4.8125 40.8558 5.06 41.3325 5.39C41.8092 5.72 42.2217 6.11417 42.57 6.5725C42.9367 7.04917 43.2117 7.5625 43.395 8.1125C43.5783 8.68083 43.67 9.2675 43.67 9.8725ZM40.04 45.0725V9.8725C40.04 9.45083 39.93 9.08417 39.71 8.7725C39.435 8.42417 39.0958 8.21333 38.6925 8.14L30.9375 5.995C30.3692 5.83 29.7642 5.665 29.1225 5.5C28.5175 5.29833 27.9217 5.12417 27.335 4.9775V50.0775L38.6925 46.75C39.0958 46.6767 39.435 46.4842 39.71 46.1725C39.93 45.8608 40.04 45.4942 40.04 45.0725Z" fill="#E05B3D"/>
</svg>
