<svg width="92" height="55" viewBox="0 0 92 55" fill="none" xmlns="http://www.w3.org/2000/svg">
<path d="M21.5115 14.3448H38.7065V15.7116H23.0877V25.9976H37.7753V27.3642H23.0877V38.6574H38.8857V40.024H21.5115V14.3448ZM40.2471 14.3448H42.074L50.1699 25.6379L58.4449 14.3446L69.7004 0L51.2087 26.8249L60.7377 40.024H58.839L50.1699 28.0117L41.4649 40.024H39.6022L49.2027 26.8247L40.2469 14.3448H40.2471ZM61.4182 15.7116V14.3446H81.0135V15.7114H71.9859V40.0238H70.4098V15.7116H61.4182ZM0 14.3446H1.97024L29.1388 55L17.9115 40.0238L1.64778 16.2869L1.5762 40.0242H0V14.3446ZM80.8546 38.2446C80.5325 38.2446 80.2911 37.9954 80.2911 37.6727C80.2911 37.3504 80.5325 37.1008 80.8546 37.1008C81.1805 37.1008 81.4182 37.3502 81.4182 37.6727C81.4182 37.9952 81.1805 38.2446 80.8546 38.2446ZM82.4034 36.74H83.2469C83.2583 37.1968 83.5918 37.5039 84.0825 37.5039C84.6308 37.5039 84.9413 37.1738 84.9413 36.5557V32.6402H85.8001V36.5595C85.8001 37.6727 85.156 38.3139 84.0902 38.3139C83.0895 38.3139 82.4034 37.6919 82.4034 36.7398V36.74ZM86.9233 36.6902H87.7744C87.8473 37.216 88.361 37.5499 89.101 37.5499C89.791 37.5499 90.297 37.1928 90.297 36.7016C90.297 36.2794 89.9749 36.026 89.2427 35.8533L88.5296 35.6806C87.5289 35.4462 87.0729 34.9626 87.0729 34.1489C87.0729 33.1624 87.8779 32.5059 89.0855 32.5059C90.2087 32.5059 91.0292 33.1622 91.0791 34.0951H90.2432C90.1628 33.5846 89.718 33.2659 89.0739 33.2659C88.3955 33.2659 87.9432 33.5923 87.9432 34.0912C87.9432 34.4865 88.2344 34.7132 88.9552 34.882L89.5647 35.0317C90.6994 35.2967 91.1672 35.7573 91.1672 36.5903C91.1672 37.6497 90.3469 38.3139 89.0358 38.3139C87.809 38.3139 86.9846 37.6804 86.9233 36.69V36.6902Z" fill="white"/>
</svg>
