<svg width="49" height="55" viewBox="0 0 49 55" fill="none" xmlns="http://www.w3.org/2000/svg">
<path d="M24.4051 54.9998C23.6472 54.9998 22.9398 54.7977 22.283 54.444L15.5626 50.4523C14.5521 49.8965 15.0574 49.6944 15.3605 49.5933C16.7247 49.1386 16.9774 49.0375 18.3921 48.2289C18.5439 48.1279 18.746 48.1784 18.8974 48.2794L24.0514 51.3617C24.2535 51.4628 24.5061 51.4628 24.6577 51.3617L44.8186 39.6898C45.0207 39.5888 45.1218 39.3867 45.1218 39.134V15.8403C45.1218 15.5877 45.0207 15.3856 44.8186 15.2845L24.6577 3.66296C24.4556 3.5619 24.203 3.5619 24.0514 3.66296L3.89051 15.2847C3.68841 15.3858 3.58736 15.6384 3.58736 15.8405V39.134C3.58736 39.3361 3.68841 39.5888 3.89051 39.6898L9.39824 42.873C12.3795 44.3887 14.2488 42.6203 14.2488 40.8519V17.8614C14.2488 17.5582 14.5016 17.2551 14.8553 17.2551H17.4323C17.7354 17.2551 18.0386 17.5077 18.0386 17.8614V40.8517C18.0386 44.8435 15.8658 47.1677 12.0761 47.1677C10.914 47.1677 10.0046 47.1677 7.42773 45.9045L2.1221 42.873C0.808418 42.1149 0 40.7001 0 39.1844V15.891C0 14.3753 0.808418 12.9605 2.1221 12.2024L22.283 0.530525C23.5461 -0.176842 25.264 -0.176842 26.5272 0.530525L46.6881 12.2024C48.0017 12.9603 48.8102 14.3751 48.8102 15.891V39.1846C48.8102 40.7003 48.0017 42.1151 46.6881 42.873L26.5272 54.5453C25.8703 54.8484 25.1124 55 24.4051 55V54.9998ZM30.62 38.9823C21.7775 38.9823 19.9586 34.9402 19.9586 31.5042C19.9586 31.201 20.2112 30.8979 20.5649 30.8979H23.1923C23.4954 30.8979 23.7482 31.1 23.7482 31.4031C24.1525 34.081 25.3146 35.3949 30.6705 35.3949C34.9149 35.3949 36.734 34.4349 36.734 32.1612C36.734 30.8474 36.2288 29.8874 29.6095 29.2303C24.1019 28.6745 20.666 27.4619 20.666 23.0661C20.666 18.9731 24.1017 16.5479 29.8621 16.5479C36.3296 16.5479 39.513 18.771 39.9172 23.6217C39.9172 23.7733 39.8667 23.9249 39.7656 24.0765C39.6646 24.1775 39.513 24.2786 39.3614 24.2786H36.734C36.4812 24.2786 36.2288 24.0765 36.1781 23.8238C35.5717 21.0449 34.0054 20.1354 29.8621 20.1354C25.2137 20.1354 24.6577 21.7523 24.6577 22.9649C24.6577 24.4303 25.3146 24.8849 31.58 25.6933C37.7951 26.5017 40.7256 27.664 40.7256 32.0095C40.6751 36.456 37.0372 38.9823 30.62 38.9823Z" fill="#539E43"/>
</svg>
