<svg width="56" height="55" viewBox="0 0 56 55" fill="none" xmlns="http://www.w3.org/2000/svg">
<path d="M27.4446 0C13.4091 0 14.2855 6.0866 14.2855 6.0866L14.3011 12.3925H27.6948V14.2857H8.98128C8.98128 14.2857 0 13.2671 0 27.4288C0 41.5909 7.83908 41.0886 7.83908 41.0886H12.5174V34.5169C12.5174 34.5169 12.2652 26.6778 20.2314 26.6778H33.5156C33.5156 26.6778 40.9791 26.7984 40.9791 19.4646V7.33856C40.9791 7.33856 42.1126 0 27.4446 0ZM20.0593 4.24059C20.3758 4.24031 20.6892 4.30244 20.9817 4.42343C21.2741 4.54442 21.5399 4.72189 21.7637 4.94569C21.9875 5.1695 22.165 5.43523 22.286 5.7277C22.4069 6.02016 22.4691 6.33362 22.4688 6.65012C22.4691 6.96663 22.4069 7.28008 22.286 7.57255C22.165 7.86501 21.9875 8.13075 21.7637 8.35455C21.5399 8.57835 21.2741 8.75583 20.9817 8.87681C20.6892 8.9978 20.3758 9.05993 20.0593 9.05965C19.7428 9.05993 19.4293 8.9978 19.1368 8.87681C18.8444 8.75583 18.5786 8.57835 18.3548 8.35455C18.131 8.13075 17.9536 7.86501 17.8326 7.57255C17.7116 7.28008 17.6494 6.96663 17.6497 6.65012C17.6494 6.33362 17.7116 6.02016 17.8326 5.7277C17.9536 5.43523 18.131 5.1695 18.3548 4.94569C18.5786 4.72189 18.8444 4.54442 19.1368 4.42343C19.4293 4.30244 19.7428 4.24031 20.0593 4.24059Z" fill="url(#paint0_linear)"/>
<path d="M27.8432 55C41.8786 55 41.0023 48.9134 41.0023 48.9134L40.9867 42.6077H27.5927V40.7145H46.3063C46.3063 40.7145 55.2875 41.7331 55.2875 27.571C55.2875 13.4091 47.4484 13.9114 47.4484 13.9114H42.7701V20.4829C42.7701 20.4829 43.0223 28.322 35.0562 28.322H21.7719C21.7719 28.322 14.3085 28.2014 14.3085 35.5354V47.6616C14.3085 47.6616 13.1751 55 27.843 55H27.8432ZM35.2285 50.7598C34.912 50.7601 34.5985 50.698 34.3061 50.577C34.0136 50.456 33.7479 50.2785 33.5241 50.0547C33.3003 49.8309 33.1228 49.5652 33.0018 49.2727C32.8808 48.9803 32.8187 48.6668 32.819 48.3503C32.8186 48.0338 32.8808 47.7203 33.0017 47.4278C33.1227 47.1353 33.3002 46.8696 33.524 46.6457C33.7478 46.4219 34.0135 46.2444 34.306 46.1234C34.5985 46.0024 34.912 45.9403 35.2285 45.9406C35.545 45.9403 35.8584 46.0024 36.1509 46.1234C36.4434 46.2444 36.7091 46.4219 36.9329 46.6457C37.1567 46.8695 37.3342 47.1352 37.4552 47.4277C37.5762 47.7201 37.6383 48.0336 37.638 48.3501C37.6383 48.6666 37.5762 48.98 37.4552 49.2725C37.3342 49.565 37.1567 49.8307 36.9329 50.0545C36.7091 50.2783 36.4434 50.4558 36.1509 50.5768C35.8584 50.6978 35.545 50.7599 35.2285 50.7596V50.7598Z" fill="url(#paint1_linear)"/>
<defs>
<linearGradient id="paint0_linear" x1="5.31311" y1="4.94692" x2="32.7119" y2="32.0724" gradientUnits="userSpaceOnUse">
<stop stop-color="#387EB8"/>
<stop offset="1" stop-color="#366994"/>
</linearGradient>
<linearGradient id="paint1_linear" x1="22.1305" y1="22.3653" x2="51.5537" y2="50.1799" gradientUnits="userSpaceOnUse">
<stop stop-color="#FFE052"/>
<stop offset="1" stop-color="#FFC331"/>
</linearGradient>
</defs>
</svg>
