<svg width="62" height="55" viewBox="0 0 62 55" fill="none" xmlns="http://www.w3.org/2000/svg">
<path d="M50.8264 17.8266C50.1685 17.6009 49.505 17.3918 48.8366 17.1995C48.9489 16.7407 49.0523 16.2874 49.144 15.8422C50.6504 8.53006 49.6656 2.63928 46.3021 0.699753C43.0772 -1.15961 37.8032 0.779198 32.4767 5.41479C31.9518 5.87247 31.4385 6.34333 30.9373 6.82694C30.6018 6.50536 30.2604 6.19002 29.9132 5.88108C24.3308 0.924566 18.7353 -1.16443 15.3754 0.780647C12.1534 2.6458 11.1994 8.18355 12.5555 15.1134C12.6904 15.7997 12.8428 16.4825 13.0124 17.1611C12.2203 17.3862 11.4561 17.6257 10.7246 17.8807C4.17969 20.1626 0 23.7386 0 27.4479C0 31.2789 4.48709 35.1215 11.3039 37.4515C11.8566 37.6396 12.4138 37.814 12.9752 37.9743C12.7929 38.7052 12.631 39.441 12.4898 40.1809C11.197 46.9905 12.2066 52.3974 15.4199 54.2507C18.7387 56.1646 24.309 54.1976 29.7328 49.4562C30.1726 49.0708 30.6027 48.6744 31.0228 48.2674C31.5655 48.7911 32.1227 49.2995 32.6938 49.7921C37.9478 54.313 43.1366 56.1386 46.3468 54.2802C49.6625 52.3607 50.7402 46.5522 49.3411 39.4855C49.2309 38.9318 49.1073 38.381 48.9704 37.8333C49.3616 37.7174 49.7455 37.5981 50.1198 37.474C57.2066 35.1261 61.8176 31.3301 61.8176 27.4479C61.8176 23.7251 57.5029 20.125 50.8264 17.8266ZM49.2894 34.9675C48.9513 35.0793 48.6046 35.1872 48.2511 35.2923C47.4687 32.8154 46.4129 30.1819 45.1208 27.4607C46.3538 24.8045 47.3689 22.2046 48.1293 19.7439C48.7618 19.927 49.3754 20.1199 49.967 20.3235C55.6875 22.2929 59.1768 25.2044 59.1768 27.4479C59.1768 29.8376 55.4084 32.9398 49.2894 34.9675ZM46.7505 39.9984C47.3692 43.1231 47.4573 45.9483 47.0475 48.1571C46.6795 50.1418 45.9392 51.4648 45.0235 51.9948C43.0755 53.1225 38.9094 51.6568 34.4162 47.7903C33.8851 47.3323 33.3667 46.8596 32.8619 46.3728C34.6039 44.4678 36.3446 42.2533 38.0437 39.7936C41.0322 39.5285 43.8555 39.0948 46.4158 38.5029C46.5419 39.0117 46.6539 39.5106 46.7505 39.9984ZM21.075 51.8C19.1717 52.472 17.6557 52.4913 16.7393 51.963C14.7894 50.8384 13.9787 46.4969 15.0845 40.6735C15.2159 39.9854 15.3664 39.301 15.5358 38.6212C18.0679 39.1815 20.8707 39.5842 23.8662 39.8272C25.5768 42.2339 27.3678 44.4461 29.1728 46.3832C28.7892 46.7544 28.3966 47.1161 27.9952 47.4679C25.5966 49.5644 23.1932 51.0519 21.075 51.8ZM12.1583 34.9527C9.14393 33.9224 6.65457 32.5834 4.94831 31.1222C3.41494 29.8093 2.64101 28.5056 2.64101 27.4479C2.64101 25.1969 5.99679 22.3258 11.5939 20.3744C12.2732 20.1378 12.9841 19.9144 13.7218 19.7048C14.4955 22.221 15.5102 24.8518 16.7347 27.5122C15.4942 30.2119 14.4651 32.8848 13.6839 35.4306C13.1715 35.2839 12.6628 35.1245 12.1583 34.9527ZM15.1472 14.6061C13.9855 8.66891 14.757 4.19027 16.6987 3.06621C18.7667 1.86897 23.3398 3.57596 28.1598 7.85586C28.4742 8.13558 28.7834 8.42097 29.0874 8.71189C27.2913 10.6406 25.5167 12.8363 23.8213 15.2288C20.9139 15.4983 18.1309 15.931 15.5722 16.5108C15.4146 15.8796 15.2729 15.2446 15.1472 14.6063V14.6061ZM41.8126 21.1906C41.2083 20.1467 40.5815 19.1159 39.9327 18.099C41.9051 18.3484 43.7949 18.6795 45.5695 19.0842C45.0368 20.7919 44.3727 22.5771 43.5911 24.4075C43.0197 23.3235 42.4268 22.251 41.8126 21.1906ZM30.9385 10.5993C32.1565 11.9189 33.3764 13.3922 34.5763 14.9907C32.1423 14.8758 29.7041 14.8753 27.27 14.9893C28.4711 13.4054 29.7014 11.9341 30.9385 10.5993ZM19.9946 21.2087C19.3881 22.2605 18.8062 23.3264 18.2495 24.4054C17.4806 22.5815 16.8226 20.7881 16.2853 19.0562C18.0491 18.6616 19.9299 18.339 21.8897 18.0942C21.2337 19.1173 20.6019 20.1557 19.9946 21.2085V21.2087ZM21.946 36.9896C19.9212 36.7636 18.0121 36.4576 16.2489 36.0737C16.7946 34.3109 17.4671 32.4793 18.2526 30.6163C18.8116 31.6961 19.3959 32.7626 20.005 33.8149C20.6314 34.8967 21.28 35.9563 21.946 36.9896ZM31.0114 44.4826C29.7596 43.1322 28.5112 41.6382 27.292 40.0314C28.4757 40.0778 29.6824 40.1015 30.9088 40.1015C32.1688 40.1015 33.4143 40.0732 34.6403 40.0186C33.4366 41.6544 32.2212 43.1506 31.0114 44.4826ZM43.6159 30.5212C44.4423 32.4047 45.1387 34.2266 45.6917 35.9592C43.8994 36.3683 41.9643 36.6976 39.9252 36.9423C40.5786 35.9065 41.2113 34.8578 41.823 33.7968C42.4449 32.7184 43.0427 31.6262 43.6159 30.5212ZM39.5355 32.4774C38.5991 34.104 37.6101 35.6998 36.5699 37.2622C34.6859 37.3956 32.7976 37.4619 30.9088 37.4609C28.985 37.4609 27.1138 37.4011 25.3119 37.2842C24.2446 35.7254 23.2367 34.1268 22.2903 32.4919H22.2906C21.3486 30.8656 20.4688 29.2041 19.6529 27.511C20.4667 25.8175 21.3439 24.1552 22.2826 22.5276L22.2823 22.5279C23.2207 20.8999 24.2206 19.3082 25.2798 17.7561C27.1181 17.617 29.0033 17.5446 30.9086 17.5446H30.9088C32.8227 17.5446 34.7103 17.6177 36.5482 17.7578C37.5967 19.3075 38.5902 20.8938 39.5268 22.5136C40.4687 24.1376 41.3574 25.7918 42.1917 27.4735C41.366 29.1725 40.48 30.8415 39.5355 32.4774ZM44.9832 2.98749C47.0531 4.18134 47.8582 8.99563 46.5576 15.309C46.4745 15.7118 46.3813 16.122 46.2799 16.5381C43.7149 15.946 40.93 15.5058 38.0142 15.2322C36.3157 12.8133 34.5556 10.6142 32.7887 8.71044C33.2517 8.26408 33.7258 7.82929 34.2105 7.40648C38.7744 3.43494 43.0398 1.8668 44.9832 2.98749ZM30.9088 21.9278C33.9574 21.9278 36.4289 24.3993 36.4289 27.4479C36.4289 30.4966 33.9574 32.9681 30.9088 32.9681C27.8602 32.9681 25.3887 30.4966 25.3887 27.4479C25.3887 24.3993 27.8602 21.9278 30.9088 21.9278Z" fill="#00D8FF"/>
</svg>
