<svg width="58" height="55" viewBox="0 0 58 55" fill="none" xmlns="http://www.w3.org/2000/svg">
<path d="M40.1424 38.4116C42.2803 38.1902 43.9022 36.3472 43.8284 34.1353C43.7549 31.9236 41.9116 30.1541 39.6999 30.1541H39.5526C37.2669 30.2279 35.4977 32.1447 35.5714 34.4302C35.6452 35.5361 36.0874 36.4945 36.7509 37.1581C34.2444 42.0979 30.4108 45.7104 24.6603 48.7331C20.7529 50.7975 16.6982 51.5348 12.6435 51.0188C9.32585 50.5764 6.74551 49.102 5.12335 46.6688C2.76434 43.0563 2.54324 39.1486 4.53382 35.2412C5.93466 32.4396 8.14612 30.3752 9.54695 29.343C9.25207 28.3846 8.80964 26.7627 8.58854 25.5832C-2.10146 33.3244 -0.995507 43.7936 2.24836 48.7331C4.68115 52.4197 9.62072 54.7051 15.0763 54.7051C16.5507 54.7051 18.025 54.5576 19.4996 54.1891C28.9364 52.3459 36.0876 46.7426 40.1424 38.4116ZM53.1178 29.2695C47.5147 22.7077 39.2577 19.0952 29.821 19.0952H28.6415C27.978 17.7682 26.5771 16.8833 25.029 16.8833H24.8814C22.5962 16.9571 20.8269 18.8739 20.9005 21.1596C20.9743 23.3713 22.8173 25.1408 25.029 25.1408H25.1763C26.7982 25.067 28.1991 24.0348 28.7888 22.634H30.1159C35.719 22.634 41.027 24.2559 45.8192 27.4262C49.5053 29.8592 52.1594 33.0296 53.6338 36.8632C54.8871 39.9597 54.8133 42.9825 53.4863 45.563C51.4221 49.4704 47.9571 51.6086 43.3862 51.6086C40.4372 51.6086 37.6358 50.7237 36.1612 50.0602C35.3503 50.7975 33.8757 51.977 32.8435 52.7145C36.0139 54.1889 39.2577 55 42.354 55C49.4315 55 54.666 51.0924 56.6566 47.185C58.7945 42.9087 58.6469 35.5361 53.1178 29.2695ZM15.666 39.6646C15.7398 41.8765 17.5828 43.6458 19.7945 43.6458H19.9421C22.2275 43.5722 23.9968 41.6552 23.923 39.3697C23.8495 37.1578 22.0062 35.3886 19.7945 35.3886H19.6472C19.4996 35.3886 19.2783 35.3886 19.1312 35.4621C16.1085 30.4488 14.8552 24.9932 15.2976 19.095C15.5923 14.6714 17.0669 10.8376 19.6472 7.66724C21.7851 4.93935 25.9136 3.61229 28.7153 3.53874C36.5298 3.39119 39.8473 13.123 40.0686 17.0306C41.027 17.2517 42.6489 17.7679 43.7549 18.1366C42.87 6.19308 35.4977 0 28.4204 0C21.7851 0 15.666 4.79225 13.233 11.87C9.84182 21.3069 12.0535 30.3752 16.182 37.5267C15.8136 38.0427 15.5923 38.8538 15.666 39.6648V39.6646Z" fill="#764ABC"/>
</svg>
