<svg width="47" height="55" viewBox="0 0 47 55" fill="none" xmlns="http://www.w3.org/2000/svg">
<path d="M23.4625 32.8419C22.5168 33.2764 21.4806 33.8427 19.4062 34.9811C18.6197 35.4235 17.7979 35.8659 17.033 36.2827C16.9799 36.2297 16.9249 36.1628 16.8718 36.1077C12.7683 31.7231 5.17871 28.6263 5.50116 22.7375C5.6211 20.5924 6.35844 14.9611 20.0767 8.12262C31.3667 2.55824 40.3503 4.09975 41.9017 7.519C44.1314 12.3932 37.0864 21.4634 25.4268 22.7788C24.1363 23.0405 22.8036 23.0089 21.527 22.6863C20.2504 22.3636 19.0626 21.7582 18.0515 20.9148C17.4341 20.2443 17.3417 20.205 17.1136 20.3387C16.7381 20.5353 16.9799 21.1429 17.1136 21.4909C17.5584 22.2962 18.1601 23.0041 18.8831 23.5728C19.6062 24.1415 20.4359 24.5595 21.3233 24.802C25.9117 25.7938 30.6956 25.3199 35.0003 23.4473C42.0668 20.7123 47.584 13.1089 45.9678 6.73448C44.3457 0.271533 33.618 -1.85984 23.4684 1.74619C17.1122 3.88817 11.2396 7.26006 6.18541 11.6697C0.593495 16.8998 -0.2913 21.4457 0.0704834 23.349C1.37212 30.1069 10.688 34.5053 14.4238 37.7633C14.2272 37.8714 14.0621 37.9599 13.9146 38.0445C12.0506 38.9706 4.94473 42.6847 3.17317 46.6132C1.16173 51.0647 3.49563 54.2559 5.03714 54.6845C7.3602 55.241 9.79904 55.0581 12.0131 54.1613C14.2272 53.2645 16.1059 51.6987 17.3869 49.6825C18.4748 48.0106 19.1428 46.1007 19.3342 44.1152C19.5255 42.1297 19.2346 40.1274 18.486 38.2784C18.9277 37.9262 19.3987 37.6124 19.8939 37.3406C20.8455 36.7782 21.7519 36.2238 22.5561 35.7951C25.3095 34.5054 28.3144 33.8413 31.3549 33.8505C37.7372 34.6016 38.9976 38.5832 38.7557 40.2604C38.6426 40.8554 38.4033 41.4194 38.054 41.9142C37.7047 42.409 37.2534 42.8233 36.7305 43.1291C36.2881 43.4103 36.1407 43.5046 36.18 43.7052C36.2331 44.0001 36.4474 43.9864 36.8229 43.9333C37.7819 43.6302 38.6267 43.0442 39.2464 42.2522C39.8661 41.4601 40.2318 40.4992 40.2953 39.4955C40.4919 35.5631 36.7423 31.2492 30.1044 31.2886C28.1168 31.292 26.149 31.6841 24.3119 32.4427C24.017 32.5646 23.7306 32.6957 23.4527 32.836L23.4625 32.8419ZM13.9755 48.255C11.856 50.5614 8.90665 51.4324 7.63254 50.6951C6.25619 49.9086 6.80083 46.4972 9.40213 44.0571C10.9428 42.669 12.608 41.4257 14.3767 40.343C14.6854 40.1463 15.1415 39.8868 15.6901 39.5565L15.8376 39.4759L16.16 39.2793C16.624 40.8347 16.6662 42.4856 16.2823 44.0627C15.8985 45.6399 15.1024 47.0867 13.9755 48.255Z" fill="#CD6799"/>
</svg>
