<svg width="92" height="55" viewBox="0 0 92 55" fill="none" xmlns="http://www.w3.org/2000/svg">
<path d="M75.4766 16.1099C72.0461 14.9284 69.018 12.804 66.7396 9.98029C64.2285 6.83421 61.0311 4.30416 57.3919 2.58369C53.7528 0.863223 49.7683 -0.00208051 45.7434 0.0539755C40.329 -0.329466 34.9689 1.34048 30.7304 4.73127C26.4919 8.12205 23.6861 12.9849 22.8717 18.3513C24.4758 15.6673 26.89 13.5614 29.767 12.3366C32.644 11.1118 35.8354 10.8314 38.8819 11.5356C42.3066 12.7515 45.3298 14.8882 47.6189 17.7109C50.1437 20.8319 53.3472 23.3358 56.9856 25.0321C60.624 26.7284 64.6013 27.5725 68.6151 27.5C74.0294 27.8834 79.3895 26.2135 83.628 22.8227C87.8665 19.4319 90.6723 14.5691 91.4867 9.20265C89.9118 11.9188 87.5052 14.0565 84.6223 15.3002C81.7395 16.544 78.5331 16.8279 75.4766 16.1099ZM16.0102 38.8901C19.4407 40.0716 22.4688 42.196 24.7472 45.0197C27.2583 48.1658 30.4557 50.6958 34.0948 52.4163C37.734 54.1368 41.7184 55.0021 45.7434 54.946C51.1577 55.3295 56.5178 53.6595 60.7563 50.2687C64.9948 46.878 67.8006 42.0151 68.6151 36.6487C67.011 39.3327 64.5967 41.4386 61.7197 42.6634C58.8428 43.8882 55.6514 44.1686 52.6049 43.4644C49.1801 42.2485 46.157 40.1118 43.8679 37.2891C41.3363 34.1759 38.1315 31.6774 34.4947 29.9819C30.8579 28.2863 26.8838 27.4377 22.8717 27.5C17.4573 27.1166 12.0972 28.7865 7.85874 32.1773C3.62026 35.5681 0.814424 40.4309 0 45.7974C1.57498 43.0812 3.98154 40.9435 6.86441 39.6998C9.74727 38.456 12.9537 38.1721 16.0102 38.8901Z" fill="#06B6D4"/>
</svg>
