<svg width="16" height="16" viewBox="0 0 16 16" fill="none" xmlns="http://www.w3.org/2000/svg">
<path fill-rule="evenodd" clip-rule="evenodd" d="M0 8C0 3.58169 3.58169 0 8 0C12.4183 0 16 3.58169 16 8C16 12.4183 12.4183 16 8 16C3.58169 16 0 12.4183 0 8ZM10.4637 11.8062L11.8927 4.60193L11.8926 4.60206C11.8926 4.12243 11.2331 4.41218 11.2331 4.41218L3.20962 7.55968C3.20962 7.55968 2.82987 7.68956 2.85987 7.92937C2.88987 8.16918 3.19962 8.27906 3.19962 8.27906L5.218 8.95856L5.21805 8.95858C5.22432 8.97914 5.82818 10.9588 5.94737 11.3365C6.06737 11.7162 6.16362 11.7252 6.16362 11.7252L6.16362 11.7254C6.27512 11.7739 6.37712 11.6965 6.37712 11.6965L7.68131 10.5074L9.71437 12.0661C10.2639 12.3059 10.4637 11.8062 10.4637 11.8062Z" fill="white"/>
</svg>