<svg width="49" height="55" viewBox="0 0 49 55" fill="none" xmlns="http://www.w3.org/2000/svg">
<path d="M24.3038 0L48.6075 13.7478V41.2522L24.3038 55L0 41.2522V13.7478L24.3038 0Z" fill="white"/>
<path d="M44.2695 40.2985L25.1109 51.1479V42.7105L37.0519 36.1348L44.2695 40.2985ZM45.581 39.1154V16.4442L38.5743 20.4885V35.0707L45.581 39.1154ZM4.26455 40.2983L23.4233 51.139V42.7014L11.4824 36.1348L4.26455 40.2985V40.2983ZM2.95309 39.1154V16.4442L9.95999 20.4885V35.0707L2.95309 39.1154ZM3.76955 14.9768L23.4233 3.86109V12.0237L10.8313 18.9478L10.7303 19.0029L3.76955 14.9766V14.9768ZM44.7556 14.9768L25.1109 3.8609V12.0236L37.6938 18.9568L37.7946 19.0118L44.7556 14.9765V14.9768Z" fill="#8ED6FB"/>
<path d="M23.4233 40.7846L11.6474 34.3004V21.4699L23.4233 28.2658V40.7846ZM25.1109 40.7846L36.8869 34.3097V21.4699L25.1109 28.2658V40.7846ZM12.4361 19.9841L24.2671 13.4818L36.0886 19.9841L24.2671 26.8076L12.4361 19.9841Z" fill="#1C78C0"/>
</svg>
